<svg xmlns="http://www.w3.org/2000/svg" viewBox="0 0 64 64" role="img" aria-label="Two hanging red boxing gloves">
  <defs>
    <linearGradient id="gloveRed" x1="12" x2="48" y1="15" y2="58" gradientUnits="userSpaceOnUse">
      <stop offset="0" stop-color="#ff4b3f" />
      <stop offset="0.48" stop-color="#ce1d20" />
      <stop offset="1" stop-color="#811014" />
    </linearGradient>
    <linearGradient id="darkRed" x1="30" x2="54" y1="18" y2="58" gradientUnits="userSpaceOnUse">
      <stop offset="0" stop-color="#ef3a32" />
      <stop offset="1" stop-color="#7a0e13" />
    </linearGradient>
  </defs>

  <path
    fill="none"
    stroke="#4a3427"
    stroke-linecap="round"
    stroke-width="2.4"
    d="M31.5 3.8c-4.2 6.6-6.8 14-8 22.2M32.3 3.8c3.8 6.9 6.4 14.3 7.6 22.2M28.3 5.2c4.2 6.4 6.4 13.4 6.5 21M35.9 5.2c-3.7 6.5-5.6 13.5-5.7 21"
  />
  <path fill="#6f5748" d="M26.2 2.8 32 0.9l5.9 1.9-2.1 5.3h-7.5z" />
  <path fill="none" stroke="#2c211d" stroke-linecap="round" stroke-width="1.6" d="M27.9 4.8h8.2M30.1 7h3.8" />

  <path
    fill="url(#darkRed)"
    stroke="#5f1015"
    stroke-linejoin="round"
    stroke-width="2.4"
    d="M39.8 19.1c7.4 0 13.3 6.2 13.3 14.1 0 10.7-7.2 20.1-16.1 20.1-6.3 0-11.4-5.4-11.4-12.1 0-4.9 2.7-9.3 6.5-11.2-.5-6.6 2-10.9 7.7-10.9z"
  />
  <path
    fill="#f7efe5"
    stroke="#5f1015"
    stroke-linejoin="round"
    stroke-width="2"
    d="M30.4 27.1h10.5c2 7.9 2.2 17.3.7 28.3H29.5c2.4-8.7 2.7-18.1.9-28.3z"
  />
  <path fill="none" stroke="#3d2823" stroke-linecap="round" stroke-width="1.4" d="M35.8 28.8c-.7 7.8-.4 15.4.8 22.9M31.8 35.7l7.4 3.2M31.4 41.3l7.8 3.1M30.9 46.8l7.4 2.8" />
  <path fill="none" stroke="#ff8d79" stroke-linecap="round" stroke-width="3.2" d="M43.9 42.3c-2.4 3.2-5.8 4.9-10.2 5" opacity="0.8" />

  <path
    fill="url(#gloveRed)"
    stroke="#5f1015"
    stroke-linejoin="round"
    stroke-width="2.6"
    d="M23.6 17.6c-9 0-16.5 7.7-16.5 17.3 0 11.4 8.5 21.2 18.6 21.2 7.8 0 14-6.8 14-15.3 0-5.7-2.9-10.8-7.2-13.2.8-6.2-2.5-10-8.9-10z"
  />
  <path
    fill="#f43a35"
    stroke="#5f1015"
    stroke-linecap="round"
    stroke-linejoin="round"
    stroke-width="2"
    d="M24.9 23.1c-6.6 1.1-11.7 6.9-11.7 13.9 0 4.9 2.6 9.1 6.6 11.4"
  />
  <path fill="#f7efe5" stroke="#5f1015" stroke-linejoin="round" stroke-width="2" d="M20.5 49h15.8v9.1H20.5z" />
  <path fill="none" stroke="#d7dce0" stroke-linecap="round" stroke-width="1.9" d="M24.2 53.4h8.6" />
  <path fill="none" stroke="#ff917c" stroke-linecap="round" stroke-width="3.4" d="M16.4 39.5c1.7 3.9 5.5 6.5 10.6 7.1" opacity="0.76" />
</svg>
