<svg xmlns="http://www.w3.org/2000/svg" viewBox="0 0 64 64" role="img" aria-label="Red boxing glove">
  <path
    fill="#d72b2f"
    stroke="#6f1218"
    stroke-linejoin="round"
    stroke-width="3"
    d="M28.5 8.5c-6.7 0-12.2 4.7-13.4 11-5.4 2.3-9 7.7-9 13.9 0 7.6 5.3 13.8 12.4 15.2h17.7c11.1 0 20.1-8.6 20.1-19.2 0-7.4-4.4-13.8-10.8-17-2.3-2.5-5.6-3.9-9.2-3.9-2.5 0-4.8.7-6.8 2-1.9-1.3-4-2-6-2z"
  />
  <path
    fill="#f23b3f"
    stroke="#6f1218"
    stroke-linecap="round"
    stroke-linejoin="round"
    stroke-width="3"
    d="M27.8 12.7c2.8 2.2 4.6 5.6 4.6 9.5 0 6.7-5.4 12.1-12.1 12.1-3.3 0-6.3-1.3-8.4-3.5"
  />
  <path
    fill="#b91724"
    stroke="#6f1218"
    stroke-linecap="round"
    stroke-linejoin="round"
    stroke-width="3"
    d="M38.7 29.9c5.5-.8 10.7 2.9 11.8 8.4"
  />
  <path
    fill="#ffffff"
    stroke="#6f1218"
    stroke-linejoin="round"
    stroke-width="3"
    d="M16.2 45.8h20.4v12H16.2z"
  />
  <path stroke="#d7dce0" stroke-linecap="round" stroke-width="2.5" d="M21.2 51.8h10.4" />
</svg>
