<svg xmlns="http://www.w3.org/2000/svg" viewBox="0 0 64 64" role="img" aria-label="Pair of red boxing gloves">
  <path fill="none" stroke="#3b302b" stroke-linecap="round" stroke-width="2.4" d="M26 4c1.8 8.7 1.4 16.2-1.2 22.5M38 4c-1.8 8.7-1.4 16.2 1.2 22.5M28.8 6c2.3 6.4 3.1 13.2 2.4 20.5M35.2 6c-2.3 6.4-3.1 13.2-2.4 20.5" />
  <path
    fill="#d72b2f"
    stroke="#6f1218"
    stroke-linejoin="round"
    stroke-width="3"
    d="M23.5 18.5c-8.5 0-15.3 7.2-15.3 16.1 0 10.7 7.8 19.4 17.4 19.4 7.7 0 13.9-6.4 13.9-14.2 0-5.4-2.9-10.1-7.2-12.5.6-5.2-2.8-8.8-8.8-8.8z"
  />
  <path
    fill="#f24a45"
    stroke="#6f1218"
    stroke-linecap="round"
    stroke-linejoin="round"
    stroke-width="3"
    d="M24.4 24.3c-5.8 1.1-10.1 6.4-10.1 12.7 0 4.3 2 8.2 5.2 10.5"
  />
  <path
    fill="#ffffff"
    stroke="#6f1218"
    stroke-linejoin="round"
    stroke-width="3"
    d="M20.8 47.4h15v10.4h-15z"
  />
  <path
    fill="#d72b2f"
    stroke="#6f1218"
    stroke-linejoin="round"
    stroke-width="3"
    d="M40.5 18.5c8.5 0 15.3 7.2 15.3 16.1 0 10.7-7.8 19.4-17.4 19.4-7.7 0-13.9-6.4-13.9-14.2 0-5.4 2.9-10.1 7.2-12.5-.6-5.2 2.8-8.8 8.8-8.8z"
  />
  <path
    fill="#f24a45"
    stroke="#6f1218"
    stroke-linecap="round"
    stroke-linejoin="round"
    stroke-width="3"
    d="M39.6 24.3c5.8 1.1 10.1 6.4 10.1 12.7 0 4.3-2 8.2-5.2 10.5"
  />
  <path
    fill="#ffffff"
    stroke="#6f1218"
    stroke-linejoin="round"
    stroke-width="3"
    d="M28.2 47.4h15v10.4h-15z"
  />
  <path stroke="#d7dce0" stroke-linecap="round" stroke-width="2.3" d="M24.6 52.7h7.4M32 52.7h7.4" />
</svg>
